<svg width="300" height="212" viewBox="0 0 300 212" fill="none" xmlns="http://www.w3.org/2000/svg">
<path d="M0 18.5519H300V207.332C300 208.551 299.515 209.72 298.654 210.581C297.792 211.443 296.623 211.927 295.405 211.927H4.59512C3.99168 211.927 3.39414 211.808 2.83664 211.578C2.27913 211.347 1.77258 211.008 1.34588 210.581C0.919183 210.155 0.580702 209.648 0.349776 209.091C0.118849 208.533 0 207.936 0 207.332V18.5519V18.5519Z" fill="#4A94A5"/>
<path opacity="0.7" d="M0 18.5519H300V207.332C300 208.551 299.515 209.72 298.654 210.581C297.792 211.443 296.623 211.927 295.405 211.927H4.59512C3.99168 211.927 3.39414 211.808 2.83664 211.578C2.27913 211.347 1.77258 211.008 1.34588 210.581C0.919183 210.155 0.580702 209.648 0.349776 209.091C0.118849 208.533 0 207.936 0 207.332V18.5519V18.5519Z" fill="white"/>
<path opacity="0.9" d="M269.808 31.1631H30.1451C27.8578 31.1631 26.0036 33.0173 26.0036 35.3046V102.665C26.0036 104.953 27.8578 106.807 30.1451 106.807H269.808C272.096 106.807 273.95 104.953 273.95 102.665V35.3046C273.95 33.0173 272.096 31.1631 269.808 31.1631Z" fill="white"/>
<path opacity="0.7" d="M96.9499 118.372H30.1451C27.8578 118.372 26.0036 120.227 26.0036 122.514V136.299C26.0036 138.587 27.8578 140.441 30.1451 140.441H96.9499C99.2372 140.441 101.091 138.587 101.091 136.299V122.514C101.091 120.227 99.2372 118.372 96.9499 118.372Z" fill="#4A94A5"/>
<path opacity="0.7" d="M183.362 118.372H116.557C114.27 118.372 112.415 120.227 112.415 122.514V136.299C112.415 138.587 114.27 140.441 116.557 140.441H183.362C185.649 140.441 187.503 138.587 187.503 136.299V122.514C187.503 120.227 185.649 118.372 183.362 118.372Z" fill="#4A94A5"/>
<path opacity="0.7" d="M269.801 118.372H202.996C200.709 118.372 198.854 120.227 198.854 122.514V136.299C198.854 138.587 200.709 140.441 202.996 140.441H269.801C272.088 140.441 273.942 138.587 273.942 136.299V122.514C273.942 120.227 272.088 118.372 269.801 118.372Z" fill="#4A94A5"/>
<path opacity="0.3" d="M30.1451 149.386H96.9499C97.4938 149.386 98.0323 149.493 98.5348 149.701C99.0372 149.909 99.4938 150.214 99.8784 150.599C100.263 150.984 100.568 151.44 100.776 151.943C100.984 152.445 101.091 152.984 101.091 153.527V211.786H26.0036V153.527C26.0036 152.429 26.44 151.376 27.2167 150.599C27.9933 149.822 29.0467 149.386 30.1451 149.386V149.386Z" fill="#4A94A5"/>
<path opacity="0.3" d="M116.615 149.386H183.42C184.519 149.386 185.572 149.823 186.349 150.599C187.125 151.376 187.562 152.429 187.562 153.528V211.786H112.415V153.528C112.415 152.979 112.524 152.436 112.736 151.929C112.948 151.423 113.258 150.964 113.649 150.578C114.04 150.193 114.503 149.889 115.013 149.685C115.522 149.48 116.067 149.379 116.615 149.386V149.386Z" fill="#4A94A5"/>
<path opacity="0.3" d="M202.981 149.386H269.786C270.884 149.386 271.938 149.822 272.714 150.599C273.491 151.376 273.927 152.429 273.927 153.527V211.786H198.854V153.527C198.854 152.432 199.289 151.38 200.062 150.604C200.836 149.828 201.885 149.39 202.981 149.386V149.386Z" fill="#4A94A5"/>
<path d="M91.434 0.404633H84.1169V1.86805H91.434V0.404633Z" fill="#4A94A5"/>
<path d="M77.6425 0.404633H59.7157V1.86805H77.6425V0.404633Z" fill="#4A94A5"/>
<path d="M286.946 5.54518H13.0099C11.2953 5.54515 9.59758 5.88407 8.01438 6.54244C6.43117 7.20082 4.99373 8.16565 3.7847 9.38148C2.57567 10.5973 1.61891 12.0401 0.969424 13.627C0.319943 15.2139 -0.00943784 16.9135 0.000205791 18.6281H300C300.009 16.9098 299.679 15.2066 299.026 13.6168C298.374 12.0271 297.414 10.5823 296.2 9.36588C294.986 8.14948 293.544 7.18555 291.955 6.52977C290.367 5.874 288.665 5.53935 286.946 5.54518Z" fill="#4A94A5"/>
<path d="M18.4398 12.0219C18.4426 12.5383 18.292 13.0439 18.0069 13.4745C17.7217 13.9051 17.3151 14.2413 16.8385 14.4402C16.3619 14.6392 15.837 14.692 15.3303 14.592C14.8237 14.4919 14.3582 14.2436 13.993 13.8784C13.6278 13.5132 13.3794 13.0477 13.2794 12.5411C13.1793 12.0344 13.2322 11.5094 13.4311 11.0329C13.6301 10.5563 13.9662 10.1496 14.3968 9.86452C14.8274 9.57941 15.3331 9.42873 15.8495 9.43162C16.5353 9.43546 17.1919 9.70959 17.6768 10.1945C18.1618 10.6795 18.4359 11.3361 18.4398 12.0219V12.0219Z" fill="white"/>
<path d="M26.7959 11.8893C26.7959 12.4016 26.644 12.9024 26.3594 13.3284C26.0747 13.7543 25.6702 14.0863 25.1969 14.2824C24.7236 14.4784 24.2028 14.5297 23.7003 14.4298C23.1979 14.3298 22.7363 14.0831 22.3741 13.7209C22.0118 13.3586 21.7651 12.8971 21.6652 12.3946C21.5652 11.8922 21.6165 11.3714 21.8126 10.8981C22.0086 10.4248 22.3406 10.0202 22.7666 9.73561C23.1926 9.45099 23.6934 9.29907 24.2057 9.29907C24.8914 9.30291 25.5481 9.57705 26.033 10.062C26.5179 10.5469 26.7921 11.2035 26.7959 11.8893V11.8893Z" fill="white"/>
<path d="M35.1677 11.8893C35.1677 12.4016 35.0157 12.9024 34.7311 13.3284C34.4465 13.7543 34.042 14.0863 33.5687 14.2824C33.0954 14.4784 32.5745 14.5297 32.0721 14.4298C31.5696 14.3298 31.1081 14.0831 30.7458 13.7209C30.3836 13.3586 30.1369 12.8971 30.037 12.3946C29.937 11.8922 29.9883 11.3714 30.1844 10.8981C30.3804 10.4248 30.7124 10.0202 31.1384 9.73561C31.5643 9.45099 32.0651 9.29907 32.5774 9.29907C33.2632 9.30291 33.9198 9.57705 34.4048 10.062C34.8897 10.5469 35.1638 11.2035 35.1677 11.8893V11.8893Z" fill="white"/>
</svg>
